<svg width="16" height="15" viewBox="0 0 16 15" fill="none" xmlns="http://www.w3.org/2000/svg">
<path fill-rule="evenodd" clip-rule="evenodd" d="M3.93733 0.958667C4.332 0.405333 4.95333 0 5.66667 0C6.38 0 7.00133 0.404666 7.396 0.958C7.79067 1.51133 8 2.22667 8 3C8 3.77333 7.79067 4.488 7.396 5.04133C7.00133 5.59467 6.38 6 5.66667 6C4.95333 6 4.332 5.59533 3.93733 5.042C3.54267 4.48867 3.33333 3.77333 3.33333 3C3.33333 2.22667 3.54267 1.512 3.93733 0.958667ZM8 3C8 2.22667 8.20933 1.512 8.604 0.958667C8.99867 0.405333 9.62 0 10.3333 0C11.0467 0 11.668 0.404666 12.0627 0.958C12.4573 1.51133 12.6667 2.22667 12.6667 3C12.6667 3.77333 12.4573 4.488 12.0627 5.04133C11.668 5.59467 11.0467 6 10.3333 6C9.62067 6 8.99867 5.59533 8.604 5.042C8.20933 4.48867 8 3.77333 8 3ZM6.31333 1.72933C6.104 1.43733 5.87467 1.33333 5.66667 1.33333C5.45867 1.33333 5.22933 1.43733 5.02 1.72933C4.81333 2.02 4.66667 2.48467 4.66667 3C4.66667 3.51533 4.81333 3.97933 5.02 4.27067C5.22933 4.56267 5.45867 4.66667 5.66667 4.66667C5.87467 4.66667 6.104 4.56267 6.31333 4.27067C6.52 3.98 6.66667 3.51533 6.66667 3C6.66667 2.48467 6.52 2.02067 6.31333 1.72933ZM10.98 1.72933C10.7707 1.43733 10.5413 1.33333 10.3333 1.33333C10.1253 1.33333 9.896 1.43733 9.68667 1.72933C9.48 2.02 9.33333 2.48467 9.33333 3C9.33333 3.51533 9.48 3.97933 9.68667 4.27067C9.896 4.56267 10.1253 4.66667 10.3333 4.66667C10.5413 4.66667 10.7707 4.56267 10.98 4.27067C11.1867 3.98 11.3333 3.51533 11.3333 3C11.3333 2.48467 11.1867 2.02067 10.98 1.72933ZM0.604 5.62533C0.998667 5.072 1.62 4.66667 2.33333 4.66667C3.04667 4.66667 3.668 5.07133 4.06267 5.62467C4.45733 6.178 4.66667 6.89333 4.66667 7.66667C4.66667 8.44 4.45733 9.15467 4.06267 9.708C3.668 10.2613 3.04667 10.6667 2.33333 10.6667C1.62 10.6667 0.998667 10.262 0.604 9.70866C0.209333 9.15533 0 8.44 0 7.66667C0 6.89333 0.209333 6.17867 0.604 5.62533ZM11.9373 5.62533C12.332 5.072 12.9533 4.66667 13.6667 4.66667C14.38 4.66667 15.0013 5.07133 15.396 5.62467C15.7907 6.178 16 6.89333 16 7.66667C16 8.44 15.7907 9.15467 15.396 9.708C15.0013 10.2613 14.38 10.6667 13.6667 10.6667C12.9533 10.6667 12.332 10.262 11.9373 9.70866C11.5427 9.15533 11.3333 8.44 11.3333 7.66667C11.3333 6.89333 11.5427 6.17867 11.9373 5.62533ZM2.98 6.396C2.77067 6.104 2.54133 6 2.33333 6C2.12533 6 1.896 6.104 1.68667 6.396C1.48 6.68667 1.33333 7.15133 1.33333 7.66667C1.33333 8.182 1.48 8.64667 1.68667 8.93733C1.896 9.22933 2.12533 9.33333 2.33333 9.33333C2.54133 9.33333 2.77067 9.22933 2.98 8.93733C3.18667 8.64667 3.33333 8.182 3.33333 7.66667C3.33333 7.15133 3.18667 6.68733 2.98 6.396ZM14.3133 6.396C14.104 6.104 13.8747 6 13.6667 6C13.4587 6 13.2293 6.104 13.02 6.396C12.8133 6.68667 12.6667 7.15133 12.6667 7.66667C12.6667 8.182 12.8133 8.646 13.02 8.93733C13.2293 9.22933 13.4587 9.33333 13.6667 9.33333C13.8747 9.33333 14.104 9.22933 14.3133 8.93733C14.52 8.64667 14.6667 8.182 14.6667 7.66667C14.6667 7.15133 14.52 6.68733 14.3133 6.396ZM6.18667 8.41667C6.49133 7.91 7.11133 7.33333 8 7.33333C8.89333 7.33333 9.52667 7.90667 9.83267 8.418C9.95716 8.62476 10.0608 8.81932 10.1506 8.98809C10.2822 9.23507 10.3843 9.4268 10.4793 9.52067C10.4922 9.53369 10.519 9.56952 10.557 9.62034V9.62034C10.6349 9.72432 10.6428 9.86571 10.5745 9.97622L10.4869 10.1182C10.3279 10.3756 9.98801 10.4599 9.73757 10.2902C9.34533 10.0244 8.99313 9.72297 8.79795 9.31524C8.76092 9.23789 8.72471 9.16677 8.68667 9.104C8.68012 9.09307 8.67374 9.08239 8.66751 9.07195C8.48523 8.76674 8.42559 8.66689 8.00141 8.66667C8.0006 8.66667 7.99986 8.66612 7.99967 8.66533C7.99947 8.66455 7.99873 8.664 7.99792 8.664C7.56072 8.66419 7.50866 8.7516 7.32152 9.0658L7.31267 9.08067C7.25277 9.17948 7.19758 9.30135 7.13619 9.43688C6.99465 9.74942 6.82019 10.1346 6.47933 10.4773C6.08863 10.868 5.63669 11.0359 5.23091 11.1865C5.05162 11.2531 4.88133 11.3164 4.72933 11.394C4.48133 11.52 4.27733 11.654 4.16667 11.7893C4.056 11.9253 4 12.0633 4 12.332C4 12.892 4.44 13.332 5 13.332C5.19333 13.332 5.816 13.1853 6.396 13.0187C6.51609 12.9846 6.63189 12.9494 6.74486 12.9152C7.17751 12.784 7.56863 12.6653 8 12.6653C8.43137 12.6653 8.82249 12.784 9.25514 12.9152C9.36811 12.9494 9.48391 12.9846 9.604 13.0187C10.184 13.1853 10.8067 13.332 11 13.332C11.56 13.332 12 12.892 12 12.332C12 12.096 11.9487 11.97 11.8333 11.832C11.8266 11.8239 11.8196 11.8159 11.8123 11.8078C11.7223 11.7075 11.626 11.6131 11.5253 11.5232C11.3213 11.341 11.2606 11.0405 11.4043 10.8077L11.4565 10.7232C11.5503 10.5713 11.7341 10.4995 11.9074 10.5422V10.5422C12.2743 10.6327 12.6404 10.723 12.8533 10.98C13.138 11.32 13.3333 11.804 13.3333 12.3333C13.3333 13.6133 12.28 14.6667 11 14.6667C10.4715 14.6667 9.92179 14.5102 9.37948 14.3559C9.32936 14.3417 9.2793 14.3274 9.22933 14.3133C8.42627 14.0834 7.57206 14.0835 6.76933 14.3147C6.71995 14.3286 6.67048 14.3427 6.62094 14.3568C6.07863 14.5113 5.52834 14.668 4.99933 14.668C3.71933 14.668 2.666 13.6147 2.666 12.3347C2.666 11.7927 2.85933 11.3093 3.146 10.9593C3.43067 10.6093 3.76867 10.3807 4.104 10.2093C4.40633 10.0552 4.7031 9.92131 4.94724 9.8112C5.24468 9.67706 5.46398 9.57815 5.52 9.52067C5.63426 9.40726 5.7524 9.192 5.90295 8.91769C5.98605 8.76627 6.07902 8.59687 6.18667 8.41667Z" fill="#FDBD4E"/>
</svg>
