<svg width="184" height="146" viewBox="0 0 184 146" fill="none" xmlns="http://www.w3.org/2000/svg">
<path fill-rule="evenodd" clip-rule="evenodd" d="M52.4051 16.4016C50.0154 17.3423 47.7139 18.2483 45.5483 19.0027C44.8975 21.17 44.9705 24.0183 45.7417 27.572C46.6041 31.5461 48.2752 36.123 50.3842 41.1243C51.9362 44.8049 53.7409 48.7416 55.5977 52.792C58.6996 59.5583 61.9469 66.642 64.4053 73.3801C68.3296 84.1358 70.6523 94.9776 66.9717 103.444C63.1705 112.189 53.448 117.514 35.6594 118.378L35.6109 118.38H35.5624C25.8527 118.38 17.5759 115.576 12.0253 110.256C6.42457 104.888 3.83738 97.1833 5.14685 87.9575C8.3578 65.3352 12.0008 50.9305 17.7949 40.3395C23.6391 29.6568 31.5766 23.0247 42.9124 15.7374L43.1235 15.6018L43.3615 15.5224C45.6721 14.7522 48.1857 13.7638 50.9438 12.6781L50.9885 12.6605L50.9886 12.6605C53.717 11.5864 56.6639 10.4263 59.7814 9.34126C66.0532 7.15828 73.0984 5.2479 80.7504 4.87726C96.2036 4.12877 113.705 9.68015 132.207 30.7272C132.822 31.4268 133.701 31.8313 134.561 31.8313L171.498 31.8313C174.967 31.8313 177.985 34.3847 178.399 37.9041C179.336 45.8816 179.971 58.1474 174.786 69.3636C169.524 80.7451 158.447 90.683 136.761 94.2462C136.39 94.3072 136.009 94.3367 135.65 94.3393C112.076 94.5119 93.8935 110.596 69.335 140.51C68.6341 141.364 67.3739 141.488 66.5201 140.787C65.6664 140.086 65.5425 138.826 66.2434 137.972C90.7084 108.172 109.976 90.5272 135.621 90.3394C135.789 90.3382 135.962 90.3238 136.112 90.2992C156.694 86.9173 166.532 77.6858 171.155 67.6852C175.855 57.5192 175.344 46.19 174.426 38.3707C174.258 36.9393 173.013 35.8313 171.498 35.8313L134.561 35.8313C132.481 35.8313 130.529 34.8774 129.202 33.3681C111.398 13.1143 95.0276 8.19042 80.944 8.87258C73.8276 9.21727 67.188 10.9987 61.0963 13.119C58.0547 14.1776 55.1703 15.3131 52.4243 16.394L52.4242 16.3941L52.409 16.4001L52.4052 16.4016L52.4051 16.4016ZM41.8326 28.4203C41.3292 26.1002 41.0475 23.8412 41.1177 21.7222C32.1924 27.8319 26.0138 33.6504 21.3041 42.2593C15.8778 52.178 12.3078 65.9697 9.10716 88.5196C7.95528 96.6351 10.2358 103.001 14.7931 107.368C19.3924 111.776 26.5466 114.371 35.5143 114.38C52.7616 113.534 60.4316 108.456 63.3033 101.85C66.2983 94.9601 64.5679 85.4959 60.6477 74.7512C58.2267 68.1157 55.1266 61.3613 52.0856 54.7354L52.0855 54.7351C50.2096 50.648 48.3562 46.6097 46.6985 42.6785C44.5624 37.6129 42.7751 32.7632 41.8326 28.4203ZM101.384 48.488C105.81 48.488 109.398 44.8998 109.398 40.4735C109.398 36.0471 105.81 32.4589 101.384 32.4589C96.9573 32.4589 93.369 36.0471 93.369 40.4735C93.369 44.8998 96.9573 48.488 101.384 48.488Z" fill="#2D384C"/>
<path d="M45.5483 19.0027L44.2325 15.2253L42.3045 15.8969L41.7173 17.8523L45.5483 19.0027ZM52.4051 16.4016L53.8703 20.1236L53.9071 20.1091L53.9436 20.0939L52.4051 16.4016ZM45.7417 27.572L49.6507 26.7237L49.6507 26.7237L45.7417 27.572ZM50.3842 41.1243L46.6985 42.6785L46.6985 42.6785L50.3842 41.1243ZM55.5977 52.792L59.2339 51.1251L59.2339 51.1251L55.5977 52.792ZM64.4053 73.3801L60.6476 74.7512L60.6476 74.7512L64.4053 73.3801ZM66.9717 103.444L63.3033 101.85L63.3033 101.85L66.9717 103.444ZM35.6594 118.378L35.8531 122.373L35.8534 122.373L35.6594 118.378ZM35.6109 118.38V122.38H35.7079L35.8047 122.376L35.6109 118.38ZM12.0253 110.256L9.25762 113.144L9.25762 113.144L12.0253 110.256ZM5.14685 87.9575L1.18654 87.3954L5.14685 87.9575ZM17.7949 40.3395L14.2857 38.4197L14.2857 38.4197L17.7949 40.3395ZM42.9124 15.7374L40.7494 12.3727L40.7494 12.3727L42.9124 15.7374ZM43.1235 15.6018L41.8586 11.807L41.3825 11.9657L40.9604 12.237L43.1235 15.6018ZM43.3615 15.5224L44.6264 19.3171L44.6264 19.3171L43.3615 15.5224ZM50.9438 12.6781L52.409 16.4001L52.409 16.4001L50.9438 12.6781ZM50.9885 12.6605L49.584 8.91518L49.5535 8.9266L49.5233 8.93851L50.9885 12.6605ZM50.9886 12.6605L52.393 16.4058L52.4235 16.3944L52.4537 16.3825L50.9886 12.6605ZM59.7814 9.34126L61.0963 13.119L61.0963 13.119L59.7814 9.34126ZM80.7504 4.87726L80.5569 0.881946L80.5569 0.881946L80.7504 4.87726ZM132.207 30.7272L129.202 33.3681L129.202 33.3681L132.207 30.7272ZM134.561 31.8313L134.561 27.8313L134.561 27.8313L134.561 31.8313ZM171.498 31.8313L171.498 27.8313L171.498 27.8313L171.498 31.8313ZM178.399 37.9041L174.426 38.3707L174.426 38.3707L178.399 37.9041ZM174.786 69.3636L171.155 67.6852L171.155 67.6852L174.786 69.3636ZM136.761 94.2462L136.112 90.2992L136.112 90.2992L136.761 94.2462ZM135.65 94.3393L135.679 98.3392L135.679 98.3392L135.65 94.3393ZM69.335 140.51L72.4266 143.048L72.4266 143.048L69.335 140.51ZM66.5201 140.787L69.0583 137.695L69.0583 137.695L66.5201 140.787ZM66.2434 137.972L69.335 140.51L69.335 140.51L66.2434 137.972ZM135.621 90.3394L135.65 94.3393L135.65 94.3393L135.621 90.3394ZM136.112 90.2992L135.464 86.3521L135.464 86.3521L136.112 90.2992ZM171.155 67.6852L167.524 66.0067L167.524 66.0067L171.155 67.6852ZM174.426 38.3707L178.399 37.9041L178.399 37.9041L174.426 38.3707ZM171.498 35.8313L171.498 31.8313L171.498 31.8313L171.498 35.8313ZM134.561 35.8313L134.561 39.8313L134.561 39.8313L134.561 35.8313ZM129.202 33.3681L126.198 36.0091L126.198 36.0091L129.202 33.3681ZM80.944 8.87258L80.7504 4.87726L80.7504 4.87726L80.944 8.87258ZM61.0963 13.119L59.7814 9.34126L59.7814 9.34126L61.0963 13.119ZM52.4243 16.394L50.9591 12.672L50.9428 12.6785L50.9265 12.6851L52.4243 16.394ZM52.4242 16.3941L53.8897 20.1159L53.9059 20.1096L53.922 20.1031L52.4242 16.3941ZM52.409 16.4001L53.8737 20.1223L53.8746 20.1219L52.409 16.4001ZM52.4052 16.4016L50.9405 12.6794L50.9035 12.6939L50.8668 12.7093L52.4052 16.4016ZM41.1177 21.7222L45.1155 21.8546L45.377 13.9591L38.8582 18.4214L41.1177 21.7222ZM41.8326 28.4203L37.9236 29.2686L37.9236 29.2686L41.8326 28.4203ZM21.3041 42.2593L24.8133 44.179L24.8133 44.179L21.3041 42.2593ZM9.10716 88.5196L5.14685 87.9575L5.14685 87.9575L9.10716 88.5196ZM14.7931 107.368L17.5608 104.481L17.5608 104.481L14.7931 107.368ZM35.5143 114.38L35.5101 118.38L35.6103 118.38L35.7103 118.375L35.5143 114.38ZM63.3033 101.85L59.6349 100.255L59.6349 100.255L63.3033 101.85ZM60.6477 74.7512L64.4054 73.3801L64.4054 73.3801L60.6477 74.7512ZM52.0856 54.7354L55.721 53.0669L55.7092 53.0412L55.697 53.0157L52.0856 54.7354ZM52.0855 54.7351L48.4501 56.4037L48.4619 56.4294L48.474 56.4549L52.0855 54.7351ZM46.6985 42.6785L50.3842 41.1243L50.3842 41.1243L46.6985 42.6785ZM46.8642 22.7801C49.1191 21.9946 51.4978 21.0575 53.8703 20.1236L50.94 12.6796C48.533 13.6271 46.3087 14.5021 44.2325 15.2253L46.8642 22.7801ZM49.6507 26.7237C48.9416 23.4563 49.0101 21.3826 49.3793 20.1531L41.7173 17.8523C40.7849 20.9574 40.9993 24.5803 41.8326 28.4203L49.6507 26.7237ZM54.0699 39.5701C51.988 34.6329 50.433 30.3289 49.6507 26.7237L41.8326 28.4203C42.7751 32.7633 44.5625 37.6131 46.6985 42.6785L54.0699 39.5701ZM59.2339 51.1251C57.371 47.0616 55.5935 43.1834 54.0699 39.5701L46.6985 42.6785C48.2789 46.4265 50.1108 50.4216 51.9616 54.4589L59.2339 51.1251ZM68.1631 72.0091C65.6397 65.0931 62.3212 57.8597 59.2339 51.1251L51.9616 54.4589C55.078 61.2569 58.2541 68.1909 60.6476 74.7512L68.1631 72.0091ZM70.6401 105.039C75.006 94.9958 72.0918 82.7772 68.163 72.0091L60.6476 74.7512C64.5674 85.4944 66.2986 94.9594 63.3033 101.85L70.6401 105.039ZM35.8534 122.373C54.1425 121.485 65.9106 115.919 70.6401 105.039L63.3033 101.85C60.4305 108.459 52.7535 113.543 35.4654 114.383L35.8534 122.373ZM35.8047 122.376L35.8531 122.373L35.4657 114.383L35.4172 114.385L35.8047 122.376ZM35.5624 122.38H35.6109V114.38H35.5624V122.38ZM9.25762 113.144C15.7517 119.368 25.1341 122.38 35.5624 122.38V114.38C26.5712 114.38 19.4001 111.784 14.7931 107.368L9.25762 113.144ZM1.18654 87.3954C-0.280354 97.7303 2.61253 106.775 9.25762 113.144L14.7931 107.368C10.2366 103.001 7.95511 96.6363 9.10716 88.5196L1.18654 87.3954ZM14.2857 38.4197C8.12394 49.6829 4.40782 64.7003 1.18654 87.3954L9.10716 88.5196C12.3078 65.9701 15.8778 52.1782 21.3041 42.2593L14.2857 38.4197ZM40.7494 12.3727C29.1826 19.8084 20.5979 26.8816 14.2857 38.4197L21.3041 42.2593C26.6803 32.432 33.9706 26.2409 45.0754 19.1021L40.7494 12.3727ZM40.9604 12.237L40.7494 12.3727L45.0754 19.1021L45.2865 18.9665L40.9604 12.237ZM42.0966 11.7277L41.8586 11.807L44.3884 19.3965L44.6264 19.3171L42.0966 11.7277ZM49.4786 8.95608C46.6955 10.0517 44.2866 10.9977 42.0966 11.7277L44.6264 19.3171C47.0577 18.5067 49.6758 17.476 52.409 16.4001L49.4786 8.95608ZM49.5233 8.93851L49.4786 8.95608L52.409 16.4001L52.4537 16.3825L49.5233 8.93851ZM49.5841 8.91515L49.584 8.91518L52.393 16.4058L52.393 16.4058L49.5841 8.91515ZM58.4665 5.56355C55.262 6.67893 52.2431 7.86783 49.5234 8.93848L52.4537 16.3825C55.1909 15.305 58.0658 14.1738 61.0963 13.119L58.4665 5.56355ZM80.5569 0.881946C72.3693 1.27852 64.9186 3.31785 58.4665 5.56355L61.0963 13.119C67.1879 10.9987 73.8275 9.21727 80.944 8.87258L80.5569 0.881946ZM135.211 28.0863C116.012 6.24636 97.38 0.0671023 80.5569 0.881946L80.944 8.87258C95.0272 8.19044 111.398 13.114 129.202 33.3681L135.211 28.0863ZM134.561 27.8313C134.754 27.8313 134.894 27.8751 134.983 27.9166C135.074 27.9589 135.149 28.0157 135.211 28.0863L129.202 33.3681C130.531 34.8799 132.484 35.8313 134.561 35.8313L134.561 27.8313ZM171.498 27.8313L134.561 27.8313L134.561 35.8313L171.498 35.8313L171.498 27.8313ZM182.371 37.4375C181.712 31.8249 176.916 27.8313 171.498 27.8313L171.498 35.8313C173.018 35.8313 174.258 36.9445 174.426 38.3707L182.371 37.4375ZM178.417 71.0421C184.087 58.776 183.327 45.5737 182.371 37.4375L174.426 38.3707C175.344 46.1894 175.855 57.5189 171.155 67.6852L178.417 71.0421ZM137.41 98.1933C160.198 94.4488 172.516 83.8051 178.417 71.0421L171.155 67.6852C166.532 77.6852 156.695 86.9171 136.112 90.2992L137.41 98.1933ZM135.679 98.3392C136.229 98.3352 136.818 98.2906 137.41 98.1933L136.112 90.2992C135.962 90.3238 135.789 90.3382 135.621 90.3394L135.679 98.3392ZM72.4266 143.048C97.0791 113.02 114.177 98.4966 135.679 98.3392L135.621 90.3394C109.975 90.5272 90.7078 108.173 66.2434 137.972L72.4266 143.048ZM63.982 143.878C66.5432 145.981 70.3239 145.609 72.4266 143.048L66.2434 137.972C66.9443 137.118 68.2045 136.994 69.0583 137.695L63.982 143.878ZM63.1518 135.434C61.0492 137.995 61.4209 141.776 63.982 143.878L69.0583 137.695C69.912 138.396 70.0359 139.656 69.335 140.51L63.1518 135.434ZM135.591 86.3395C107.876 86.5424 87.524 105.747 63.1518 135.434L69.335 140.51C93.8929 110.597 112.076 94.5119 135.65 94.3393L135.591 86.3395ZM135.464 86.3521C135.506 86.3452 135.533 86.3426 135.546 86.3415C135.56 86.3403 135.574 86.3396 135.591 86.3395L135.65 94.3393C136.009 94.3367 136.39 94.3072 136.761 94.2462L135.464 86.3521ZM167.524 66.0067C163.539 74.6274 154.941 83.1517 135.464 86.3521L136.761 94.2462C158.447 90.6828 169.525 80.7443 174.786 69.3636L167.524 66.0067ZM170.453 38.8374C171.353 46.4991 171.738 56.8913 167.524 66.0067L174.786 69.3636C179.971 58.1471 179.336 45.8809 178.399 37.9041L170.453 38.8374ZM171.498 39.8313C171.046 39.8313 170.529 39.4815 170.453 38.8374L178.399 37.9041C177.987 34.3971 174.98 31.8313 171.498 31.8313L171.498 39.8313ZM134.561 39.8313L171.498 39.8313L171.498 31.8313L134.561 31.8313L134.561 39.8313ZM126.198 36.0091C128.236 38.3269 131.259 39.8313 134.561 39.8313L134.561 31.8313C133.703 31.8313 132.823 31.4279 132.207 30.7272L126.198 36.0091ZM81.1375 12.8679C93.852 12.2521 109.091 16.5487 126.198 36.0091L132.207 30.7272C113.705 9.67982 96.2032 4.12879 80.7504 4.87726L81.1375 12.8679ZM62.4111 16.8967C68.3229 14.839 74.5569 13.1866 81.1375 12.8679L80.7504 4.87726C73.0983 5.2479 66.0531 7.15831 59.7814 9.34126L62.4111 16.8967ZM53.8895 20.116C56.6449 19.0314 59.4568 17.925 62.4111 16.8967L59.7814 9.34126C56.6526 10.4303 53.6957 11.5948 50.9591 12.672L53.8895 20.116ZM53.922 20.1031L53.9222 20.103L50.9265 12.6851L50.9263 12.6851L53.922 20.1031ZM53.8746 20.1219L53.8897 20.1159L50.9586 12.6723L50.9434 12.6782L53.8746 20.1219ZM53.8699 20.1237L53.8737 20.1223L50.9443 12.6779L50.9405 12.6794L53.8699 20.1237ZM53.9436 20.0939L53.9437 20.0939L50.8668 12.7093L50.8667 12.7093L53.9436 20.0939ZM37.1199 21.5897C37.0354 24.1391 37.3756 26.7432 37.9236 29.2686L45.7417 27.572C45.2827 25.4573 45.0596 23.5432 45.1155 21.8546L37.1199 21.5897ZM24.8133 44.179C29.1181 36.3102 34.7598 30.9218 43.3772 25.0229L38.8582 18.4214C29.6249 24.742 22.9095 30.9905 17.7949 40.3395L24.8133 44.179ZM13.0675 89.0818C16.2579 66.6038 19.7549 53.4253 24.8133 44.179L17.7949 40.3395C12.0008 50.9307 8.35774 65.3355 5.14685 87.9575L13.0675 89.0818ZM17.5608 104.481C14.0461 101.112 12.0734 96.0854 13.0675 89.0818L5.14685 87.9575C3.83717 97.1847 6.42551 104.889 12.0254 110.256L17.5608 104.481ZM35.5184 110.38C27.271 110.372 21.2194 107.987 17.5608 104.481L12.0253 110.256C17.5654 115.566 25.8222 118.37 35.5101 118.38L35.5184 110.38ZM59.6349 100.255C57.6873 104.736 52.0499 109.564 35.3183 110.385L35.7103 118.375C53.4734 117.504 63.176 112.176 66.9717 103.444L59.6349 100.255ZM56.89 76.1222C58.7965 81.3478 60.1 86.0782 60.5972 90.2225C61.0952 94.3742 60.7531 97.683 59.6349 100.255L66.9717 103.444C68.8486 99.1269 69.1387 94.2587 68.5402 89.2697C67.9409 84.2733 66.419 78.8992 64.4054 73.3801L56.89 76.1222ZM48.4502 56.4039C51.5047 63.0591 54.5339 69.6648 56.89 76.1222L64.4054 73.3801C61.9194 66.5667 58.7486 59.6634 55.721 53.0669L48.4502 56.4039ZM48.474 56.4549L48.4741 56.4551L55.697 53.0157L55.6969 53.0154L48.474 56.4549ZM43.0127 44.2326C44.699 48.2317 46.5794 52.3278 48.4501 56.4037L55.7209 53.0666C53.8398 48.9681 52.0133 44.9877 50.3842 41.1243L43.0127 44.2326ZM37.9236 29.2686C38.9461 33.9801 40.8495 39.1026 43.0127 44.2326L50.3842 41.1243C48.2753 36.1232 46.6041 31.5462 45.7417 27.572L37.9236 29.2686ZM105.398 40.4735C105.398 42.6906 103.601 44.488 101.384 44.488V52.488C108.019 52.488 113.398 47.1089 113.398 40.4735H105.398ZM101.384 36.4589C103.601 36.4589 105.398 38.2563 105.398 40.4735H113.398C113.398 33.838 108.019 28.4589 101.384 28.4589V36.4589ZM97.369 40.4735C97.369 38.2563 99.1664 36.4589 101.384 36.4589V28.4589C94.7481 28.4589 89.369 33.838 89.369 40.4735H97.369ZM101.384 44.488C99.1664 44.488 97.369 42.6906 97.369 40.4735H89.369C89.369 47.1089 94.7481 52.488 101.384 52.488V44.488Z" fill="#2D384C"/>
</svg>
